<?xml version="1.0" encoding="UTF-8" standalone="no"?>
<!-- Created with Inkscape (http://www.inkscape.org/) -->

<svg
   xmlns:dc="http://purl.org/dc/elements/1.1/"
   xmlns:cc="http://creativecommons.org/ns#"
   xmlns:rdf="http://www.w3.org/1999/02/22-rdf-syntax-ns#"
   xmlns:svg="http://www.w3.org/2000/svg"
   xmlns="http://www.w3.org/2000/svg"
   xmlns:sodipodi="http://sodipodi.sourceforge.net/DTD/sodipodi-0.dtd"
   xmlns:inkscape="http://www.inkscape.org/namespaces/inkscape"
   id="svg2"
   version="1.1"
   inkscape:version="0.91 r13725"
   xml:space="preserve"
   width="534.42773"
   height="237.26071"
   viewBox="0 0 534.42771 237.26071"
   sodipodi:docname="logo.svg"><metadata
     id="metadata8"><rdf:RDF><cc:Work
         rdf:about=""><dc:format>image/svg+xml</dc:format><dc:type
           rdf:resource="http://purl.org/dc/dcmitype/StillImage" /><dc:title></dc:title></cc:Work></rdf:RDF></metadata><defs
     id="defs6" /><sodipodi:namedview
     pagecolor="#ffffff"
     bordercolor="#666666"
     borderopacity="1"
     objecttolerance="10"
     gridtolerance="10"
     guidetolerance="10"
     inkscape:pageopacity="0"
     inkscape:pageshadow="2"
     inkscape:window-width="1625"
     inkscape:window-height="1026"
     id="namedview4"
     showgrid="false"
     fit-margin-top="0"
     fit-margin-left="0"
     fit-margin-right="0"
     fit-margin-bottom="0"
     showborder="false"
     inkscape:zoom="0.89706868"
     inkscape:cx="217.2673"
     inkscape:cy="113.59322"
     inkscape:window-x="55"
     inkscape:window-y="24"
     inkscape:window-maximized="1"
     inkscape:current-layer="g10" /><g
     id="g10"
     inkscape:groupmode="layer"
     inkscape:label="ink_ext_XXXXXX"
     transform="matrix(1.25,0,0,-1.25,-153.06545,1655.3608)"><rect
       style="fill:none;fill-opacity:1;stroke:none;stroke-width:12;stroke-miterlimit:4;stroke-dasharray:none"
       id="rect4161"
       width="462.84082"
       height="281.80673"
       x="104.80305"
       y="-1370.2877"
       transform="scale(1,-1)"
       inkscape:export-filename="/home/crep/www/dve/logo.png"
       inkscape:export-xdpi="112"
       inkscape:export-ydpi="112" /><g
       id="g6117"
       inkscape:export-filename="/home/crep/www/dve/logo.png"
       inkscape:export-xdpi="112"
       inkscape:export-ydpi="112"
       transform="translate(-13.873051,847.51728)"><rect
         transform="scale(1,-1)"
         y="-476.77139"
         x="136.32541"
         height="189.80856"
         width="427.54221"
         id="rect6115"
         style="fill:none;fill-opacity:1;stroke:none;stroke-width:12;stroke-miterlimit:4;stroke-dasharray:none" /><g
         inkscape:export-ydpi="112.35"
         inkscape:export-xdpi="112.35"
         inkscape:export-filename="/home/crep/www/dve/data/medias/dve.png"
         style="fill:#6a1b9a"
         transform="matrix(0.09134561,0,0,0.09134561,-35.132484,109.96473)"
         id="g12"><path
           inkscape:connector-curvature="0"
           id="path14"
           style="fill:#6a1b9a;fill-opacity:1;fill-rule:nonzero;stroke:none"
           d="m 4810.87,3814.01 -592.48,-592.5 -592.51,592.5 -394.97,0 987.48,-987.49 987.49,987.49 -395.01,0" /><path
           inkscape:connector-curvature="0"
           id="path16"
           style="fill:#6a1b9a;fill-opacity:1;fill-rule:nonzero;stroke:none"
           d="m 5485.16,2976.07 837.95,0 0,279.32 -1117.23,0 0,-837.92 279.28,-279.33 837.95,0 0,279.33 -837.95,0 0,558.6" /><path
           inkscape:connector-curvature="0"
           id="path18"
           style="fill:#6a1b9a;fill-opacity:1;fill-rule:nonzero;stroke:none"
           d="m 6323.11,3534.68 0,279.33 -837.95,0 -279.28,-279.33 1117.23,0" /><path
           inkscape:connector-curvature="0"
           id="path20"
           style="fill:#6a1b9a;fill-opacity:1;fill-rule:nonzero;stroke:none"
           d="m 3230.88,3534.68 -279.3,279.33 -837.91,0 0,-279.33 837.91,0 0.03,-1117.21 -558.66,0 0,837.92 -279.29,0 0.01,-1117.25 837.94,0 279.3,279.33 -0.03,1117.21" /><path
           inkscape:connector-curvature="0"
           id="path22"
           style="fill:#6a1b9a;fill-opacity:1;fill-rule:nonzero;stroke:none"
           d="m 3937.7,2636.76 c 0,12.04 -3.33,15.46 -15.09,15.46 l -60.91,0 0,-73.76 60.91,0 c 11.76,0 15.09,3.42 15.09,14.58 l 0,43.72 z m -91.82,-73.75 0,104.66 76.73,0 c 23.65,0 30.92,-10.25 30.92,-30.91 l 0,-43.87 c 0,-19.63 -7.27,-29.88 -30.92,-29.88 l -76.73,0" /><path
           inkscape:connector-curvature="0"
           id="path24"
           style="fill:#6a1b9a;fill-opacity:1;fill-rule:nonzero;stroke:none"
           d="m 4145.06,2642.55 c 0,6.25 -3.32,9.67 -10.44,9.67 l -55.3,0 0,-27.07 55.3,0 c 7.12,0 10.44,3.43 10.44,9.68 l 0,7.72 z m -2.01,-79.54 -19.63,46.68 -44.1,0 0,-46.68 -15.84,0 0,104.66 71.14,0 c 19.01,0 26.28,-10.25 26.28,-25.26 l 0,-7.44 c 0,-13.52 -5.84,-23.19 -20.69,-24.98 l 19.72,-46.98 -16.88,0" /><path
           inkscape:connector-curvature="0"
           id="path26"
           style="fill:#6a1b9a;fill-opacity:1;fill-rule:nonzero;stroke:none"
           d="m 4506.9,2563.01 c -19.03,0 -26.28,10.25 -26.28,25.27 l 0,54.13 c 0,15.01 7.25,25.26 26.28,25.26 l 67.44,0 0,-15.45 -67.44,0 c -7.13,0 -10.45,-3.42 -10.45,-9.67 l 0,-54.41 c 0,-6.26 3.32,-9.68 10.45,-9.68 l 67.44,0 0,-15.45 -67.44,0" /><path
           inkscape:connector-curvature="0"
           id="path28"
           style="fill:#6a1b9a;fill-opacity:1;fill-rule:nonzero;stroke:none"
           d="m 3587.39,2417.59 -55.66,104.68 17.96,0 43.77,-84.3 43.29,84.3 17.48,0 -55.3,-104.68 -11.54,0" /><path
           inkscape:connector-curvature="0"
           id="path30"
           style="fill:#6a1b9a;fill-opacity:1;fill-rule:nonzero;stroke:none"
           d="m 3757.07,2417.59 0,104.68 86.1,0 0,-15.47 -70.3,0 0,-26.17 66.73,0 0,-15.48 -66.73,0 0,-32.12 70.3,0 0,-15.44 -86.1,0" /><path
           inkscape:connector-curvature="0"
           id="path32"
           style="fill:#6a1b9a;fill-opacity:1;fill-rule:nonzero;stroke:none"
           d="m 4033.3,2497.15 c 0,6.25 -3.34,9.65 -10.46,9.65 l -55.3,0 0,-27.07 55.3,0 c 7.12,0 10.46,3.43 10.46,9.68 l 0,7.74 z m -2.02,-79.56 -19.64,46.68 -44.1,0 0,-46.68 -15.82,0 0,104.68 71.12,0 c 19.03,0 26.28,-10.26 26.28,-25.27 l 0,-7.46 c 0,-13.52 -5.83,-23.19 -20.69,-24.97 l 19.74,-46.98 -16.89,0" /><path
           inkscape:connector-curvature="0"
           id="path34"
           style="fill:#6a1b9a;fill-opacity:1;fill-rule:nonzero;stroke:none"
           d="m 4182.63,2417.59 c -19.03,0 -26.28,10.27 -26.28,25.28 l 0,54.13 c 0,15.01 7.25,25.27 26.28,25.27 l 67.43,0 0,-15.47 -67.43,0 c -7.12,0 -10.46,-3.4 -10.46,-9.65 l 0,-54.44 c 0,-6.24 3.34,-9.68 10.46,-9.68 l 67.43,0 0,-15.44 -67.43,0" /><path
           inkscape:connector-curvature="0"
           id="path36"
           style="fill:#6a1b9a;fill-opacity:1;fill-rule:nonzero;stroke:none"
           d="m 4449.95,2497.15 c 0,6.25 -3.32,9.65 -10.47,9.65 l -55.3,0 c -7.14,0 -10.48,-3.4 -10.48,-9.65 l 0,-54.44 c 0,-6.24 3.34,-9.68 10.48,-9.68 l 55.3,0 c 7.15,0 10.47,3.44 10.47,9.68 l 0,54.44 z m -65.77,-79.56 c -19.02,0 -26.27,10.27 -26.27,25.28 l 0,54.13 c 0,15.01 7.25,25.27 26.27,25.27 l 55.3,0 c 19.04,0 26.29,-10.26 26.29,-25.27 l 0,-54.13 c 0,-15.01 -7.25,-25.28 -26.29,-25.28 l -55.3,0" /><path
           inkscape:connector-curvature="0"
           id="path38"
           style="fill:#6a1b9a;fill-opacity:1;fill-rule:nonzero;stroke:none"
           d="m 4657.32,2497.15 c 0,6.25 -3.32,9.65 -10.46,9.65 l -55.31,0 0,-27.07 55.31,0 c 7.14,0 10.46,3.43 10.46,9.68 l 0,7.74 z m -2.02,-79.56 -19.64,46.68 -44.11,0 0,-46.68 -15.81,0 0,104.68 71.12,0 c 19.03,0 26.29,-10.26 26.29,-25.27 l 0,-7.46 c 0,-13.52 -5.84,-23.19 -20.7,-24.97 l 19.74,-46.98 -16.89,0" /><path
           inkscape:connector-curvature="0"
           id="path40"
           style="fill:#6a1b9a;fill-opacity:1;fill-rule:nonzero;stroke:none"
           d="m 4782.05,2417.59 0,15.44 72.76,0 c 7.15,0 10.48,3.44 10.48,9.68 l 0,13.24 c 0,6.24 -3.33,9.67 -10.48,9.67 l -49.21,0 c -19.03,0 -26.27,10.27 -26.27,25.29 l 0,6.09 c 0,15.01 7.24,25.27 26.27,25.27 l 70.87,0 0,-15.47 -70.87,0 c -7.14,0 -10.48,-3.4 -10.48,-9.65 l 0,-6.41 c 0,-6.23 3.34,-9.66 10.48,-9.66 l 49.21,0 c 19.06,0 26.31,-10.27 26.31,-25.29 l 0,-12.92 c 0,-15.01 -7.25,-25.28 -26.31,-25.28 l -72.76,0" /><path
           inkscape:connector-curvature="0"
           id="path42"
           style="fill:#6a1b9a;fill-opacity:1;fill-rule:nonzero;stroke:none"
           d="m 3443.38,2272.17 0,104.69 86.09,0 0,-15.48 -70.27,0 0,-26.15 66.71,0 0,-15.48 -66.71,0 0,-32.12 70.27,0 0,-15.46 -86.09,0" /><path
           inkscape:connector-curvature="0"
           id="path44"
           style="fill:#6a1b9a;fill-opacity:1;fill-rule:nonzero;stroke:none"
           d="m 3639.09,2272.17 0,15.46 72.79,0 c 7.14,0 10.47,3.44 10.47,9.67 l 0,13.24 c 0,6.24 -3.33,9.66 -10.47,9.66 l -49.23,0 c -19.04,0 -26.29,10.26 -26.29,25.28 l 0,6.1 c 0,15.03 7.25,25.28 26.29,25.28 l 70.88,0 0,-15.48 -70.88,0 c -7.13,0 -10.47,-3.41 -10.47,-9.65 l 0,-6.39 c 0,-6.24 3.34,-9.68 10.47,-9.68 l 49.23,0 c 19.03,0 26.27,-10.25 26.27,-25.26 l 0,-12.94 c 0,-15.03 -7.24,-25.29 -26.27,-25.29 l -72.79,0" /><path
           inkscape:connector-curvature="0"
           id="path46"
           style="fill:#6a1b9a;fill-opacity:1;fill-rule:nonzero;stroke:none"
           d="m 3871.92,2272.17 c -19.03,0 -26.28,10.26 -26.28,25.29 l 0,54.12 c 0,15.03 7.25,25.28 26.28,25.28 l 67.45,0 0,-15.48 -67.45,0 c -7.13,0 -10.46,-3.41 -10.46,-9.65 l 0,-54.43 c 0,-6.23 3.33,-9.67 10.46,-9.67 l 67.45,0 0,-15.46 -67.45,0" /><path
           inkscape:connector-curvature="0"
           id="path48"
           style="fill:#6a1b9a;fill-opacity:1;fill-rule:nonzero;stroke:none"
           d="m 4265.39,2272.17 0,104.69 15.94,0 0,-89.23 67.91,0 0,-15.46 -83.85,0" /><path
           inkscape:connector-curvature="0"
           id="path50"
           style="fill:#6a1b9a;fill-opacity:1;fill-rule:nonzero;stroke:none"
           d="m 4764.81,2345.92 c 0,12.05 -3.34,15.46 -15.09,15.46 l -60.9,0 0,-73.75 60.9,0 c 11.75,0 15.09,3.44 15.09,14.58 l 0,43.71 z m -91.81,-73.75 0,104.69 76.72,0 c 23.66,0 30.91,-10.25 30.91,-30.94 l 0,-43.85 c 0,-19.64 -7.25,-29.9 -30.91,-29.9 l -76.72,0" /><path
           inkscape:connector-curvature="0"
           id="path52"
           style="fill:#6a1b9a;fill-opacity:1;fill-rule:nonzero;stroke:none"
           d="m 4890.61,2272.17 0,104.69 86.11,0 0,-15.48 -70.29,0 0,-26.15 66.7,0 0,-15.48 -66.7,0 0,-32.12 70.29,0 0,-15.46 -86.11,0" /><path
           inkscape:connector-curvature="0"
           id="path54"
           style="fill:#6a1b9a;fill-opacity:1;fill-rule:nonzero;stroke:none"
           d="m 4302.9,2609.69 19.57,37.62 19.27,-37.62 -38.84,0 z m 62.74,-46.68 17.86,0 -55.31,104.66 -11.55,0 -55.64,-104.66 17.59,0 16.25,31.23 54.82,0 15.98,-31.23" /><path
           inkscape:connector-curvature="0"
           id="path56"
           style="fill:#6a1b9a;fill-opacity:1;fill-rule:nonzero;stroke:none"
           d="m 4489.58,2318.86 19.57,37.62 19.27,-37.62 -38.84,0 z m 62.74,-46.69 17.86,0 -55.31,104.69 -11.54,0 -55.65,-104.69 17.59,0 16.25,31.24 54.82,0 15.98,-31.24" /><path
           inkscape:connector-curvature="0"
           id="path58"
           style="fill:#6a1b9a;fill-opacity:1;fill-rule:nonzero;stroke:none"
           d="m 4081.97,2318.86 19.57,37.62 19.26,-37.62 -38.83,0 z m 62.73,-46.69 17.85,0 -55.3,104.69 -11.54,0 -55.66,-104.69 17.6,0 16.25,31.24 54.82,0 15.98,-31.24" /></g></g></g></svg>